<svg preserveAspectRatio="none" width="100%" height="100%" overflow="visible" style="display: block;" viewBox="0 0 34 36" fill="none" xmlns="http://www.w3.org/2000/svg">
<g id="Overlay">
<rect width="34" height="36" rx="8" fill="var(--fill-0, #EC3713)" fill-opacity="0.05"/>
<path id="Icon" d="M15.6 20.25L13.45 18.1C13.2667 17.9167 13.0333 17.825 12.75 17.825C12.4667 17.825 12.2333 17.9167 12.05 18.1C11.8667 18.2833 11.775 18.5167 11.775 18.8C11.775 19.0833 11.8667 19.3167 12.05 19.5L14.9 22.35C15.1 22.55 15.3333 22.65 15.6 22.65C15.8667 22.65 16.1 22.55 16.3 22.35L21.95 16.7C22.1333 16.5167 22.225 16.2833 22.225 16C22.225 15.7167 22.1333 15.4833 21.95 15.3C21.7667 15.1167 21.5333 15.025 21.25 15.025C20.9667 15.025 20.7333 15.1167 20.55 15.3L15.6 20.25V20.25M10 28C9.45 28 8.97917 27.8042 8.5875 27.4125C8.19583 27.0208 8 26.55 8 26V12C8 11.45 8.19583 10.9792 8.5875 10.5875C8.97917 10.1958 9.45 10 10 10H14.2C14.4167 9.4 14.7792 8.91667 15.2875 8.55C15.7958 8.18333 16.3667 8 17 8C17.6333 8 18.2042 8.18333 18.7125 8.55C19.2208 8.91667 19.5833 9.4 19.8 10H24C24.55 10 25.0208 10.1958 25.4125 10.5875C25.8042 10.9792 26 11.45 26 12V26C26 26.55 25.8042 27.0208 25.4125 27.4125C25.0208 27.8042 24.55 28 24 28H10V28M10 26H24V26V26V12V12V12H10V12V12V26V26V26V26M17 11.25C17.2167 11.25 17.3958 11.1792 17.5375 11.0375C17.6792 10.8958 17.75 10.7167 17.75 10.5C17.75 10.2833 17.6792 10.1042 17.5375 9.9625C17.3958 9.82083 17.2167 9.75 17 9.75C16.7833 9.75 16.6042 9.82083 16.4625 9.9625C16.3208 10.1042 16.25 10.2833 16.25 10.5C16.25 10.7167 16.3208 10.8958 16.4625 11.0375C16.6042 11.1792 16.7833 11.25 17 11.25V11.25M10 26V26V26V12V12V12V12V12V12V26V26V26V26V26" fill="var(--fill-0, #EC3713)"/>
</g>
</svg>
