<svg preserveAspectRatio="none" width="100%" height="100%" overflow="visible" style="display: block;" viewBox="0 0 15 11.4125" fill="none" xmlns="http://www.w3.org/2000/svg">
<g id="Container">
<path id="Icon" d="M14.25 6.45625H12.75C12.5375 6.45625 12.3594 6.38437 12.2156 6.24062C12.0719 6.09687 12 5.91875 12 5.70625C12 5.49375 12.0719 5.31562 12.2156 5.17188C12.3594 5.02813 12.5375 4.95625 12.75 4.95625H14.25C14.4625 4.95625 14.6406 5.02813 14.7844 5.17188C14.9281 5.31562 15 5.49375 15 5.70625C15 5.91875 14.9281 6.09687 14.7844 6.24062C14.6406 6.38437 14.4625 6.45625 14.25 6.45625V6.45625M10.95 9.30625C11.075 9.13125 11.2375 9.03125 11.4375 9.00625C11.6375 8.98125 11.825 9.03125 12 9.15625L13.2 10.0562C13.375 10.1812 13.475 10.3437 13.5 10.5437C13.525 10.7437 13.475 10.9312 13.35 11.1062C13.225 11.2812 13.0625 11.3812 12.8625 11.4063C12.6625 11.4313 12.475 11.3813 12.3 11.2563L11.1 10.3562C10.925 10.2312 10.825 10.0687 10.8 9.86875C10.775 9.66875 10.825 9.48125 10.95 9.30625V9.30625M13.2 1.35625L12 2.25625C11.825 2.38125 11.6375 2.43125 11.4375 2.40625C11.2375 2.38125 11.075 2.28125 10.95 2.10625C10.825 1.93125 10.775 1.74375 10.8 1.54375C10.825 1.34375 10.925 1.18125 11.1 1.05625L12.3 0.15625C12.475 0.03125 12.6625 -0.01875 12.8625 0.00625C13.0625 0.03125 13.225 0.13125 13.35 0.30625C13.475 0.48125 13.525 0.66875 13.5 0.86875C13.475 1.06875 13.375 1.23125 13.2 1.35625V1.35625M2.25 7.95625H1.5C1.0875 7.95625 0.734375 7.80937 0.440625 7.51563C0.146875 7.22188 0 6.86875 0 6.45625V4.95625C0 4.54375 0.146875 4.19062 0.440625 3.89687C0.734375 3.60312 1.0875 3.45625 1.5 3.45625H4.5L7.10625 1.88125C7.35625 1.73125 7.60937 1.73125 7.86562 1.88125C8.12187 2.03125 8.25 2.25 8.25 2.5375V8.875C8.25 9.1625 8.12187 9.38125 7.86562 9.53125C7.60937 9.68125 7.35625 9.68125 7.10625 9.53125L4.5 7.95625H3.75V10.2063C3.75 10.4188 3.67812 10.5969 3.53437 10.7406C3.39062 10.8844 3.2125 10.9563 3 10.9563C2.7875 10.9563 2.60938 10.8844 2.46563 10.7406C2.32188 10.5969 2.25 10.4188 2.25 10.2063V7.95625V7.95625M6.75 7.54375V3.86875L4.9125 4.95625H1.5V4.95625V4.95625V6.45625V6.45625V6.45625H4.9125L6.75 7.54375V7.54375M9 8.21875V3.19375C9.3375 3.49375 9.60938 3.85938 9.81563 4.29063C10.0219 4.72188 10.125 5.19375 10.125 5.70625C10.125 6.21875 10.0219 6.69062 9.81563 7.12187C9.60938 7.55312 9.3375 7.91875 9 8.21875V8.21875M4.125 5.70625V5.70625V5.70625V5.70625V5.70625V5.70625V5.70625V5.70625V5.70625V5.70625V5.70625V5.70625" fill="var(--fill-0, #3B82F6)"/>
</g>
</svg>
