<svg preserveAspectRatio="none" width="100%" height="100%" overflow="visible" style="display: block;" viewBox="0 0 12 14" fill="none" xmlns="http://www.w3.org/2000/svg">
<g id="Container">
<path id="Icon" d="M4 0H8V1.34375H4V0V0M10.6875 4.28125L11.625 3.3125C11.4792 3.14583 11.3281 2.98438 11.1719 2.82812C11.0156 2.67188 10.8542 2.52083 10.6875 2.375L9.75 3.34375C9.22917 2.92708 8.65104 2.59896 8.01562 2.35938C7.38021 2.11979 6.70833 2 6 2C5.16667 2 4.39062 2.15625 3.67188 2.46875C2.95312 2.78125 2.31771 3.21354 1.76562 3.76562C1.21354 4.31771 0.78125 4.95833 0.46875 5.6875C0.15625 6.41667 0 7.1875 0 8C0 8.83333 0.15625 9.61458 0.46875 10.3438C0.78125 11.0729 1.21354 11.7083 1.76562 12.25C2.31771 12.7917 2.95312 13.2188 3.67188 13.5312C4.39062 13.8438 5.16667 14 6 14C6.83333 14 7.60938 13.8438 8.32812 13.5312C9.04688 13.2188 9.68229 12.7917 10.2344 12.25C10.7865 11.7083 11.2188 11.0729 11.5312 10.3438C11.8438 9.61458 12 8.83333 12 8C12 7.29167 11.8854 6.61979 11.6562 5.98438C11.4271 5.34896 11.1042 4.78125 10.6875 4.28125V4.28125M6.65625 8.6875H5.34375V4.6875H6.65625V8.6875V8.6875" fill="var(--fill-0, #EC3713)"/>
</g>
</svg>
